<svg xmlns="http://www.w3.org/2000/svg" xmlns:xlink="http://www.w3.org/1999/xlink" fill="none" version="1.1" width="24" height="24" viewBox="0 0 24 24"><g><g><g></g><g><path d="M3.7072259499999993,2.2930119499999995L21.70709995,20.29289995Q21.84779995,20.433499949999998,21.92389995,20.61729995Q21.99999995,20.80109995,21.99999995,20.99999995Q21.99999995,21.09849995,21.980799949999998,21.19509995Q21.96159995,21.291699949999998,21.92389995,21.38269995Q21.886199949999998,21.47369995,21.831499949999998,21.555599949999998Q21.77669995,21.63749995,21.70709995,21.70709995Q21.63749995,21.77669995,21.555599949999998,21.831499949999998Q21.47369995,21.886199949999998,21.38269995,21.92389995Q21.291699949999998,21.96159995,21.19509995,21.980799949999998Q21.09849995,21.99999995,20.99999995,21.99999995Q20.80109995,21.99999995,20.61729995,21.92389995Q20.433499949999998,21.84779995,20.29289995,21.70709995L2.2928929499999993,3.7071069499999996Q2.1522409499999995,3.5664549499999993,2.0761199499999994,3.3826829499999995Q1.9999999499999994,3.1989119499999994,1.9999999499999994,2.9999999499999994Q1.9999999499999994,2.9015085499999995,2.0192149499999994,2.8049099499999994Q2.0384299499999994,2.7083109499999996,2.0761209499999995,2.6173169499999993Q2.1138119499999997,2.5263219499999994,2.1685299499999995,2.4444299499999995Q2.2232489499999994,2.3625369499999995,2.2928929499999993,2.2928929499999993Q2.3625369499999995,2.2232489499999994,2.4444299499999995,2.1685299499999995Q2.5263219499999994,2.1138119499999997,2.6173169499999993,2.0761209499999995Q2.7083109499999996,2.0384299499999994,2.8049099499999994,2.0192149499999994Q2.9015085499999995,1.9999999499999994,2.9999999499999994,1.9999999499999994Q3.1989119499999994,1.9999999499999994,3.3826829499999995,2.0761199499999994Q3.5664549499999993,2.1522409499999995,3.7071069499999996,2.2928929499999993L3.7072259499999993,2.2930119499999995Z" fill-rule="evenodd" fill="#000000" fill-opacity="1"/></g><g><path d="M11.2893537,11.294356843188476Q11.4301237,11.153688843188476,11.5063137,10.969846843188476Q11.5825037,10.786003843188476,11.5825037,10.586999843188476Q11.5825037,10.488508443188476,11.5632837,10.391909843188476Q11.544073699999998,10.295310843188476,11.5063737,10.204316843188476Q11.4686837,10.113321843188476,11.4139637,10.031429843188477Q11.3592537,9.949536843188476,11.289603699999999,9.879892843188475Q11.2199637,9.810248843188475,11.1380737,9.755529843188476Q11.056173699999999,9.700811843188475,10.9651827,9.663120843188477Q10.8741877,9.625429843188476,10.7775897,9.606214843188475Q10.680990699999999,9.586999843188476,10.582498699999999,9.586999843188476Q10.383678699999999,9.586999843188476,10.199978699999999,9.663052843188476Q10.0162792,9.739105843188476,9.8756417,9.879642843188476L9.875606699999999,9.879678843188476L9.8753917,9.879892843188475Q8.996533699999999,10.758307843188476,8.9960937,12.000939843188476Q8.9956537,13.243749843188477,9.8741427,14.122859843188476Q10.7526307,15.001969843188476,11.9954337,15.002409843188476Q13.237523699999999,15.002839843188475,14.116333699999998,14.125379843188476L14.117353699999999,14.124359843188476Q14.258123699999999,13.983689843188476,14.3343137,13.799849843188476Q14.4104937,13.615999843188476,14.4104937,13.416999843188476Q14.4104937,13.318509843188476,14.391283699999999,13.221909843188476Q14.3720737,13.125309843188475,14.3343737,13.034319843188475Q14.296683699999999,12.943319843188476,14.2419637,12.861429843188477Q14.1872537,12.779539843188477,14.1176037,12.709889843188476Q14.0479637,12.640249843188476,13.9660637,12.585529843188477Q13.8841737,12.530809843188475,13.7931837,12.493119843188476Q13.702183699999999,12.455429843188476,13.6055837,12.436209843188475Q13.5089937,12.416999843188476,13.4104937,12.416999843188476Q13.211673699999999,12.416999843188476,13.0279837,12.493049843188476Q12.8442837,12.569109843188476,12.703643699999999,12.709639843188477L12.7028237,12.710459843188476Q12.4099437,13.002549843188476,11.9961437,13.002409843188476Q11.5817637,13.002259843188476,11.288853699999999,12.709139843188476Q10.995947699999999,12.416029843188475,10.9960937,12.001649843188476Q10.996243699999999,11.587269843188476,11.2893537,11.294356843188476Z" fill-rule="evenodd" fill="#000000" fill-opacity="1"/></g><g><path d="M11.99673995,5.99999312489624Q10.79433995,5.995738124896239,9.63830995,6.326443124896239L9.363279949999999,5.36500312489624L10.06999995,4.65751312489624L20.20399995,14.78051312489624L19.49729995,15.487983124896239L18.762899949999998,14.80925312489624Q20.02009995,13.44909312489624,21.13209995,11.50372312489624L22.00029995,12.000003124896239L21.13209995,12.496163124896238Q17.419799949999998,6.0000031248962395,12.000299949999999,6.0000031248962395L11.99673995,5.99999312489624ZM12.000299949999999,4.00000512489624Q18.58039995,4.00000512489624,22.86849995,11.503843124896239Q22.93329995,11.61718312489624,22.96679995,11.74335312489624Q23.00029995,11.86953312489624,23.00029995,12.00007312489624Q23.00029995,12.13061312489624,22.96679995,12.25678312489624Q22.93319995,12.38294312489624,22.86839995,12.496283124896241Q21.64339995,14.63936312489624,20.23159995,16.16678312489624Q20.218499949999998,16.18098312489624,20.204799949999998,16.19468312489624Q20.13519995,16.26438312489624,20.05329995,16.31918312489624Q19.97139995,16.37398312489624,19.88049995,16.41168312489624Q19.78949995,16.44938312489624,19.69289995,16.468683124896238Q19.59629995,16.48798312489624,19.49779995,16.48798312489624Q19.39929995,16.488083124896242,19.30269995,16.468883124896237Q19.20609995,16.44968312489624,19.11509995,16.41208312489624Q19.02409995,16.374483124896237,18.94219995,16.31978312489624Q18.86019995,16.26508312489624,18.79059995,16.195483124896242L8.656559949999998,6.07249312489624Q8.47314995,5.88928112489624,8.401849949999999,5.6400371248962395Q8.37475995,5.545344124896239,8.366659949999999,5.447186124896239Q8.35856995,5.3490271248962395,8.36977995,5.25117612489624Q8.38098995,5.15332512489624,8.41107995,5.05954102489624Q8.44115995,4.96575712489624,8.48896995,4.87964512489624Q8.53676995,4.79353212489624,8.60044995,4.71840012489624Q8.66413995,4.64326812489624,8.74125995,4.5820041248962395Q8.81837995,4.520741124896239,8.90596995,4.47569912489624Q8.99355995,4.430657124896239,9.08824995,4.40356912489624Q10.517379949999999,3.9947431248962397,12.00379995,4.00001012489624L12.000299949999999,4.00000512489624ZM11.99999995,17.99998312489624Q14.60329995,17.99998312489624,16.79789995,16.51998312489624L17.35699995,17.34898312489624L16.65109995,18.057283124896237L5.9260499499999995,7.3672631248962395L6.631999949999999,6.659003124896239L7.193349949999999,7.48658312489624Q4.806189949999999,9.10579312489624,2.8681759499999995,12.49626312489624L1.9999999499999994,12.000003124896239L2.8682319499999993,11.503843124896239Q6.580519949999999,17.99998312489624,11.99999995,17.99998312489624ZM11.99999995,19.99998312489624Q5.419909949999999,19.99998312489624,1.1317679499999995,12.496163124896238Q1.0669999499999994,12.38282312489624,1.0334959499999994,12.25665312489624Q0.9999899499999994,12.13048312489624,0.9999999499999994,11.999943124896241Q1.0000069499999995,11.86940312489624,1.0335249499999994,11.743243124896239Q1.0670419499999995,11.61707312489624,1.1318239499999994,11.50374312489624Q3.2998699499999997,7.71084312489624,6.070649949999999,5.83142212489624Q6.142199949999999,5.78289312489624,6.221009949999999,5.74736312489624Q6.29981995,5.711832124896239,6.3835599499999995,5.690354124896239Q6.467299949999999,5.668877124896239,6.55347995,5.66208912489624Q6.639669949999999,5.65530112489624,6.7257399499999995,5.66340512489624Q6.81180995,5.671508124896239,6.895209949999999,5.694263124896239Q6.978609949999999,5.717017124896239,7.056869949999999,5.75374812489624Q7.13512995,5.790478124896239,7.20592995,5.84009412489624Q7.2767199499999995,5.88971012489624,7.33794995,5.95074012489624L18.06299995,16.640783124896238Q18.131799949999998,16.70928312489624,18.18609995,16.78988312489624Q18.24109995,16.87148312489624,18.27919995,16.962383124896242Q18.31729995,17.05318312489624,18.33689995,17.149683124896242Q18.35659995,17.24618312489624,18.35699995,17.34468312489624Q18.357399949999998,17.44318312489624,18.33859995,17.53988312489624Q18.31979995,17.63658312489624,18.28249995,17.727683124896238Q18.24519995,17.81888312489624,18.19089995,17.90098312489624Q18.13649995,17.98308312489624,18.06709995,18.05308312489624Q17.99779995,18.12298312489624,17.91609995,18.17808312489624Q15.21469995,19.99998312489624,11.99999995,19.99998312489624Z" fill="#000000" fill-opacity="1"/></g></g></g></svg>