<svg xmlns="http://www.w3.org/2000/svg" xmlns:xlink="http://www.w3.org/1999/xlink" fill="none" version="1.1" width="24" height="24" viewBox="0 0 24 24"><g><g><g></g><g><ellipse cx="11.99999995" cy="11.99999995" rx="2" ry="2" fill-opacity="0" stroke-opacity="1" stroke="#000000" fill="none" stroke-width="2" stroke-linecap="ROUND" stroke-linejoin="round"/></g><g><path d="M22.86699995,12.498249949999998Q18.57919995,19.99999995,11.99999995,19.99999995Q5.419909949999999,19.99999995,1.1317679499999995,12.49615995Q1.0670069499999995,12.38282995,1.0335029499999995,12.256679949999999Q0.9999999499999994,12.13052995,0.9999999499999994,11.99999995Q0.9999999499999994,11.86946995,1.0335039499999994,11.74331995Q1.0670069499999995,11.61716995,1.1317689499999994,11.50383995Q5.41989995,3.9999999499999994,11.99999995,3.9999999499999994Q18.57919995,4.0000009499999996,22.86699995,11.50174995Q22.86759995,11.50278995,22.86819995,11.50383995Q22.99999995,11.73440995,22.99999995,11.99999995Q22.99999995,12.26601995,22.86779995,12.49686995L22.86699995,12.498249949999998ZM20.83999995,11.99999995Q17.20839995,17.99999995,11.99999995,17.99999995Q6.79158995,17.99999995,3.1599899499999995,11.99999995Q6.79158995,5.999999949999999,11.99999995,5.999999949999999Q17.20839995,5.999998949999999,20.83999995,11.99999995Z" fill-rule="evenodd" fill="#000000" fill-opacity="1"/></g></g></g></svg>